<svg xmlns="http://www.w3.org/2000/svg" fill-rule="evenodd" stroke-linejoin="round" stroke-miterlimit="2" clip-rule="evenodd" viewBox="0 0 64 64" id="paper-plane"><g transform="translate(-1768 -168)"><path fill="url(#_Linear1)" d="M1785.18,209.491C1785.87,210.186 1786.97,210.273 1787.77,209.696L1797.01,202.994C1797.01,202.994 1790.3,212.234 1790.3,212.234C1789.73,213.03 1789.81,214.127 1790.51,214.822L1804,228.31C1805.41,229.724 1807.46,230.305 1809.4,229.846C1811.35,229.386 1812.92,227.952 1813.55,226.055C1817.31,214.776 1825.61,189.885 1829.7,177.594C1830.39,175.521 1829.86,173.235 1828.31,171.69C1826.77,170.145 1824.48,169.605 1822.41,170.296C1810.12,174.393 1785.22,182.69 1773.94,186.45C1772.05,187.082 1770.61,188.652 1770.15,190.598C1769.69,192.544 1770.28,194.589 1771.69,196.003L1785.18,209.491Z"></path></g><defs><linearGradient id="_Linear1" x1="0" x2="1" y1="0" y2="0" gradientTransform="rotate(-45 1151.964 -2054.326) scale(53.5399)" gradientUnits="userSpaceOnUse"><stop offset="0" stop-color="#229eeb"></stop><stop offset="1" stop-color="#8e5def"></stop></linearGradient></defs></svg>