<?xml version="1.0" encoding="UTF-8"?>
<!-- Generator: visioncortex VTracer 0.6.3 -->
<svg version="1.1" xmlns="http://www.w3.org/2000/svg" width="1280" height="1021">
<path d="M0 0 C422.4 0 844.8 0 1280 0 C1280 336.93 1280 673.86 1280 1021 C857.6 1021 435.2 1021 0 1021 C0 684.07 0 347.14 0 0 Z " fill="#DCDFE0" transform="translate(0,0)"/>
<path d="M0 0 C0.61 0.32 1.22 0.64 1.85 0.98 C23.77 12.62 43.5 30.69 59 50 C59.51 50.62 60.03 51.25 60.55 51.89 C64.05 56.39 64.05 56.39 63.82 58.97 C62.84 61.39 61.63 62.8 59.82 64.69 C59.17 65.38 58.51 66.07 57.83 66.79 C57.12 67.52 56.42 68.25 55.69 69 C54.97 69.76 54.25 70.51 53.5 71.29 C48.72 76.28 43.86 81.18 38.95 86.04 C36.37 88.59 33.91 91.18 31.56 93.94 C28.27 97.77 24.82 101.43 21.31 105.06 C20.75 105.66 20.19 106.26 19.62 106.87 C17.99 108.54 17.99 108.54 15 111 C12.07 110.68 11.2 110.22 9.15 108.04 C8.56 107.24 7.98 106.45 7.38 105.62 C6.78 104.83 6.19 104.04 5.59 103.23 C4.36 101.51 3.17 99.76 2 98 C-2.36 99.83 -4.76 102.9 -7.8 106.42 C-10 108 -10 108 -12.98 108.02 C-16.62 106.79 -17.99 105.38 -20.44 102.44 C-21.6 101.08 -21.6 101.08 -22.79 99.69 C-24.11 98.08 -25.43 96.46 -26.75 94.84 C-38.4 80.79 -57 72.04 -75 70 C-102.33 68.53 -125.32 73.74 -146.35 92.05 C-163.22 107.93 -174.02 130.76 -174.98 153.82 C-175.47 176.07 -168.78 198.61 -153.2 214.93 C-136.04 232.18 -114.24 243.16 -89.69 243.38 C-62.31 243.11 -39.63 232.86 -20.4 213.38 C-17.51 210.33 -14.73 207.2 -12 204 C-7.28 204.67 -5.68 207.51 -2.88 211.09 C-0.79 213.47 -0.79 213.47 4 215 C7.3 210.71 10.6 206.42 14 202 C18.5 203.13 19.17 203.94 22.05 207.37 C27.15 213.23 32.6 218.68 38.12 224.12 C43.77 229.69 49.33 235.25 54.48 241.28 C57.4 244.59 60.72 247.52 63.96 250.51 C66.5 253.62 67.29 254.96 67 259 C65.04 262.05 62.56 264.51 60 267.06 C59.27 267.81 58.54 268.56 57.79 269.32 C42.01 285.28 24.08 299.2 5 311 C4.38 311.38 3.76 311.77 3.13 312.16 C-13.78 322.37 -33.6 328.66 -53 332 C-53.88 332.17 -54.76 332.35 -55.66 332.53 C-65.51 334.33 -75.29 334.34 -85.27 334.32 C-88.23 334.31 -91.19 334.34 -94.14 334.36 C-105.78 334.4 -116.64 333.5 -128 331 C-129.01 330.79 -130.02 330.58 -131.07 330.37 C-176.91 320.56 -219.89 290.85 -245.46 251.48 C-269.6 212.55 -279.6 165.77 -269.48 120.69 C-260.15 81.97 -238.9 44.43 -207 20 C-205.79 19.04 -204.59 18.09 -203.38 17.13 C-193.81 9.62 -183.81 3.56 -173 -2 C-172.39 -2.32 -171.78 -2.65 -171.15 -2.98 C-154.87 -11.53 -136.17 -17.3 -118 -20 C-116.74 -20.2 -115.49 -20.4 -114.2 -20.61 C-74.57 -26.47 -35.11 -18.73 0 0 Z " fill="#42B9FD" transform="translate(747,253)"/>
<path d="M0 0 C4.72 4.13 9.21 8.49 13.67 12.9 C14.35 13.57 15.03 14.24 15.73 14.93 C19.34 18.57 22.73 22.02 25.11 26.59 C24.89 31.43 22.6 33.55 19.22 36.83 C18.48 37.55 18.48 37.55 17.73 38.3 C16.16 39.84 14.57 41.37 12.98 42.9 C10.91 44.91 8.85 46.93 6.79 48.95 C6.29 49.44 5.79 49.92 5.27 50.42 C1.81 53.82 -1.38 57.35 -4.39 61.15 C-6.22 62.9 -7.37 63.41 -9.89 63.59 C-12.64 61.15 -12.64 61.15 -14.89 58.59 C-12.65 54.41 -9.8 51.28 -6.39 48.03 C-1.61 43.72 -1.61 43.72 2.11 38.59 C1.17 33.82 -2.26 30.68 -5.52 27.28 C-6.07 26.7 -6.61 26.13 -7.17 25.53 C-8.26 24.39 -9.35 23.25 -10.44 22.11 C-11.61 20.89 -12.76 19.64 -13.9 18.39 C-36.55 -5.78 -72.63 -20.66 -105.48 -21.78 C-108.22 -21.83 -110.96 -21.85 -113.71 -21.85 C-114.43 -21.85 -115.15 -21.85 -115.89 -21.85 C-129.07 -21.82 -141.21 -20.11 -153.89 -16.41 C-155.05 -16.1 -155.05 -16.1 -156.23 -15.78 C-175.06 -10.66 -193.18 -1.22 -207.89 11.59 C-208.76 12.32 -209.62 13.04 -210.51 13.79 C-222.01 23.75 -230.88 34.74 -238.89 47.59 C-239.52 48.56 -240.15 49.54 -240.79 50.54 C-251.09 67.22 -258.29 87.15 -260.89 106.59 C-261.01 107.4 -261.12 108.2 -261.23 109.04 C-265.7 148.56 -255 187.95 -230.89 219.59 C-228.03 223.07 -225.01 226.34 -221.89 229.59 C-221.04 230.53 -220.18 231.48 -219.29 232.45 C-211.76 240.56 -203.22 246.5 -193.86 252.36 C-192.29 253.34 -190.73 254.36 -189.19 255.39 C-175.94 263.98 -160.19 269.1 -144.89 272.59 C-144.16 272.78 -143.42 272.96 -142.66 273.15 C-133.76 275.12 -124.74 274.96 -115.68 274.96 C-112.86 274.96 -110.04 275 -107.22 275.04 C-67.22 275.29 -33.77 256.11 -5.89 228.59 C-3.92 226.47 -2.02 224.34 -0.16 222.11 C1.11 220.59 1.11 220.59 3.11 218.59 C2.85 214.62 0.38 212.16 -2.08 209.21 C-2.89 208.25 -3.69 207.28 -4.52 206.28 C-6.44 204.1 -8.37 202.15 -10.52 200.21 C-12.89 197.59 -12.89 197.59 -12.96 194.9 C-11.84 192.48 -11.12 191.07 -8.89 189.59 C-5.67 190.02 -4.14 191 -2 193.41 C-1.47 194 -0.93 194.59 -0.38 195.2 C0.48 196.17 0.48 196.17 1.36 197.15 C7.32 203.73 13.49 210.04 19.86 216.22 C26.43 222.67 26.43 222.67 28.11 226.59 C27.67 229.88 26.53 231.55 24.22 233.88 C23.62 234.48 23.02 235.09 22.4 235.72 C21.42 236.67 21.42 236.67 20.42 237.65 C19.74 238.32 19.06 238.99 18.37 239.68 C12.57 245.3 6.5 250.38 0.01 255.18 C-2.05 256.7 -4.07 258.25 -6.11 259.8 C-28.43 276.64 -54.57 288.93 -82.52 292.21 C-83.49 292.34 -84.46 292.46 -85.46 292.58 C-88.27 292.93 -91.08 293.26 -93.89 293.59 C-94.71 293.69 -95.53 293.79 -96.37 293.89 C-138.77 298.87 -182.84 285.84 -216.89 260.59 C-217.7 259.99 -218.51 259.4 -219.34 258.79 C-225.16 254.38 -230.58 249.58 -235.89 244.59 C-236.41 244.11 -236.92 243.64 -237.44 243.14 C-249.79 231.52 -259.04 218.63 -266.89 203.59 C-267.26 202.88 -267.63 202.17 -268.02 201.45 C-274.13 189.58 -278.74 177.56 -281.89 164.59 C-282.3 163.01 -282.3 163.01 -282.71 161.39 C-285.04 151.26 -285.39 141.48 -285.34 131.13 C-285.33 128.36 -285.36 125.59 -285.39 122.81 C-285.46 107.03 -282.91 92.15 -277.77 77.21 C-277.48 76.36 -277.18 75.5 -276.88 74.61 C-270.85 57.54 -262.48 42.23 -251.89 27.59 C-250.93 26.23 -250.93 26.23 -249.95 24.85 C-223.63 -10.13 -180.9 -32.81 -137.98 -39.13 C-87.62 -45.94 -38.88 -33.12 0 0 Z " fill="#DDE0E1" transform="translate(770.89453125,282.41015625)"/>
<path d="M0 0 C422.4 0 844.8 0 1280 0 C1280 1.98 1280 3.96 1280 6 C860.24 6 440.48 6 8 6 C8 340.95 8 675.9 8 1021 C5.36 1021 2.72 1021 0 1021 C0 684.07 0 347.14 0 0 Z " fill="#FCFDFF" transform="translate(0,0)"/>
<path d="M0 0 C4.02 3.31 7.83 6.81 11.56 10.44 C12.35 11.19 12.35 11.19 13.15 11.95 C15.34 14.12 16.89 15.98 18.04 18.85 C17.99 22.07 16.99 23.12 14.81 25.44 C14.2 26.11 13.59 26.79 12.96 27.48 C11.05 29.21 9.35 30.23 7 31.25 C2.55 28.08 -1.55 24.77 -5.5 21 C-29.12 -0.49 -59.16 -7.74 -90.32 -6.88 C-96.7 -6.57 -102.83 -5.41 -109 -3.75 C-110.05 -3.47 -110.05 -3.47 -111.12 -3.18 C-142.64 5.63 -169.44 26 -186 54.25 C-201.04 81.27 -205.21 111.23 -196.97 141.15 C-194 150.7 -189.79 159.5 -185 168.25 C-184.47 169.23 -183.94 170.2 -183.39 171.21 C-167.12 198.74 -137.81 214.73 -107.98 223.05 C-98.79 225.4 -89.7 225.43 -80.25 225.44 C-79.06 225.45 -77.88 225.46 -76.66 225.47 C-64.71 225.49 -53.67 223.91 -42.38 220 C-41.46 219.69 -40.55 219.37 -39.61 219.05 C-23.26 213.29 -9.41 203.02 2.89 190.89 C5.38 188.95 6.83 188.29 10 188.25 C12.2 189.73 12.2 189.73 14.25 191.88 C14.94 192.57 15.62 193.26 16.33 193.98 C18.21 196.54 18.89 198.07 19 201.25 C15.56 207.2 9.27 211.94 4 216.25 C3.1 217 2.2 217.75 1.27 218.52 C-12.69 229.74 -27.8 238.2 -45 243.25 C-46.03 243.56 -47.07 243.88 -48.13 244.2 C-82.29 253.68 -119.69 248.16 -150.49 231.34 C-153.74 229.41 -156.87 227.37 -160 225.25 C-160.58 224.87 -161.16 224.48 -161.75 224.08 C-190.08 205.07 -207.56 178.75 -217.34 146.38 C-217.9 144.59 -218.5 142.81 -219.12 141.04 C-224.99 122.49 -223.77 98.94 -219 80.25 C-218.81 79.48 -218.61 78.7 -218.41 77.9 C-212.62 55.33 -202.22 34.93 -187 17.25 C-186.18 16.28 -185.36 15.32 -184.51 14.32 C-162.96 -10.47 -131.92 -23.79 -100 -28.75 C-98.88 -28.94 -97.76 -29.12 -96.61 -29.32 C-61.5 -33.54 -27.62 -21.22 0 0 Z " fill="#DDE0E1" transform="translate(741,299.75)"/>
<path d="M0 0 C1.05 0.28 2.1 0.55 3.18 0.84 C20.68 5.98 36.81 16.75 49.06 30.15 C50.36 32.71 49.78 34.3 49 37 C47.24 37.69 47.24 37.69 45 38 C43.11 36.81 43.11 36.81 41.19 35 C40.49 34.35 39.79 33.7 39.07 33.03 C37.22 31.22 35.42 29.37 33.62 27.5 C16.71 10.51 -6.97 4.82 -30.19 4.75 C-55.67 4.78 -78.06 14.04 -97 31 C-97.62 31.54 -98.24 32.08 -98.88 32.63 C-112.43 45.17 -121.2 63.42 -126 81 C-126.22 81.79 -126.45 82.59 -126.68 83.41 C-132.24 107.47 -126.27 133.59 -113.97 154.59 C-102.31 172.49 -85 186.49 -65 194 C-64.06 194.36 -64.06 194.36 -63.1 194.73 C-38.34 203.86 -8.46 200.94 15.19 190.12 C21.4 187.09 26.87 183.67 32 179 C32.49 178.56 32.99 178.11 33.5 177.66 C37.74 173.85 41.97 170.03 46 166 C48 166.19 48 166.19 50 167 C52 170 52 170 51.79 172 C46.61 185.16 24.21 195.42 12.29 201.02 C6.7 203.41 0.95 204.78 -5 206 C-5.65 206.17 -6.3 206.35 -6.97 206.52 C-13.63 208.23 -20.09 208.35 -26.94 208.31 C-28.13 208.31 -29.32 208.3 -30.55 208.3 C-61.64 207.87 -87.46 195.98 -109.81 174.62 C-128.14 155.63 -138.7 129.9 -139.25 103.56 C-138.58 72.92 -125.18 45.27 -103.19 24.12 C-87.64 10.98 -67.92 1.09 -48 -3 C-47.1 -3.19 -46.21 -3.38 -45.29 -3.57 C-29.95 -5.56 -14.79 -4.28 0 0 Z " fill="#DDE0E1" transform="translate(689,307)"/>
<path d="M0 0 C7.36 4.38 10.44 11.41 13.12 19.28 C14.11 23.48 14.33 27.27 14.31 31.56 C14.33 32.29 14.34 33.02 14.36 33.77 C14.37 38.62 13.46 41.71 11 46 C10.3 48.74 10.3 48.74 10 51 C9.34 51 8.68 51 8 51 C8 51.99 8 52.98 8 54 C6.54 55.61 6.54 55.61 4.62 57.19 C4 57.72 3.37 58.25 2.73 58.79 C1 60 1 60 -1 60 C-1 60.66 -1 61.32 -1 62 C-10.6 65.43 -20.24 66.62 -30 63 C-38.35 58.89 -44.42 53.82 -47.77 44.98 C-48.25 43.34 -48.63 41.67 -49 40 C-49.5 38.51 -49.5 38.51 -50 37 C-50.92 26.44 -48.78 18.32 -44 9 C-43.34 9 -42.68 9 -42 9 C-41.91 8.4 -41.83 7.8 -41.74 7.19 C-40.28 2.89 -35.81 1.08 -32 -1 C-19.92 -6.57 -11.89 -5.72 0 0 Z " fill="#717273" transform="translate(561,650)"/>
<path d="M0 0 C1.1 0.02 2.2 0.03 3.34 0.05 C6.06 0.25 6.06 0.25 8.06 1.25 C9.86 1.42 11.67 1.59 13.47 1.74 C22.44 2.55 28.73 4.24 34.83 11.29 C41.66 20.66 43.17 30.83 42.06 42.25 C41.08 44.47 41.08 44.47 40.06 46.25 C39.7 48.25 39.37 50.25 39.06 52.25 C38.57 53.24 38.57 53.24 38.06 54.25 C37.4 54.25 36.74 54.25 36.06 54.25 C36.06 55.24 36.06 56.23 36.06 57.25 C34.48 58.93 34.48 58.93 32.25 60.69 C31.54 61.26 30.83 61.84 30.11 62.43 C20.18 68.36 11.13 68.68 -0.06 68.06 C-1.5 68 -2.93 67.94 -4.37 67.89 C-14.75 67.44 -14.75 67.44 -15.94 66.25 C-16.03 64.29 -16.05 62.32 -16.05 60.35 C-16.05 59.09 -16.05 57.83 -16.05 56.53 C-16.05 55.14 -16.04 53.76 -16.04 52.37 C-16.03 50.96 -16.03 49.55 -16.03 48.14 C-16.03 44.42 -16.02 40.7 -16.01 36.98 C-16 33.18 -15.99 29.39 -15.99 25.6 C-15.98 18.15 -15.96 10.7 -15.94 3.25 C-14.52 2.75 -13.09 2.26 -11.67 1.77 C-10.87 1.5 -10.08 1.22 -9.26 0.94 C-6.13 0.01 -3.26 -0.08 0 0 Z " fill="#727374" transform="translate(613.9375,645.75)"/>
<path d="M0 0 C6.62 0.07 6.62 0.07 9.29 2.21 C10.84 4.61 12.07 7.06 13.31 9.62 C14.55 11.58 15.83 13.52 17.12 15.44 C17.8 16.44 18.47 17.45 19.16 18.48 C25.26 28.02 25.26 28.02 33.31 35.62 C33.31 34.64 33.3 33.65 33.3 32.63 C33.28 28.96 33.27 25.3 33.26 21.64 C33.25 20.05 33.25 18.46 33.24 16.88 C33.22 14.6 33.22 12.32 33.21 10.04 C33.21 9.33 33.2 8.62 33.2 7.88 C33.2 2.85 33.2 2.85 34.31 0.62 C36.62 0.6 38.94 0.58 41.25 0.56 C42.54 0.55 43.83 0.54 45.15 0.53 C48.31 0.62 48.31 0.62 49.31 1.62 C49.41 3.62 49.43 5.62 49.43 7.61 C49.43 8.89 49.43 10.18 49.43 11.5 C49.42 12.9 49.42 14.31 49.41 15.72 C49.41 17.16 49.41 18.59 49.41 20.02 C49.4 23.8 49.39 27.58 49.38 31.36 C49.37 35.22 49.37 39.07 49.36 42.92 C49.35 50.49 49.33 58.06 49.31 65.62 C47.39 65.69 45.47 65.74 43.55 65.77 C41.94 65.81 41.94 65.81 40.3 65.86 C35.78 65.51 34.21 64.01 31.31 60.62 C31.31 59.97 31.31 59.3 31.31 58.62 C30.65 58.62 29.99 58.62 29.31 58.62 C29.31 57.63 29.31 56.64 29.31 55.62 C28.65 55.62 27.99 55.62 27.31 55.62 C26.52 54.21 25.73 52.79 24.94 51.38 C24.5 50.59 24.06 49.8 23.6 48.98 C22.46 46.89 21.37 44.77 20.31 42.62 C19.65 42.62 18.99 42.62 18.31 42.62 C17.99 42.03 17.66 41.44 17.32 40.83 C13.03 32.72 13.03 32.72 7.31 25.62 C7.31 38.83 7.31 52.02 7.31 65.62 C2.69 65.62 -1.93 65.62 -6.69 65.62 C-8.48 63.83 -7.82 61.16 -7.82 58.74 C-7.82 57.49 -7.82 56.23 -7.83 54.93 C-7.82 53.55 -7.82 52.16 -7.82 50.78 C-7.82 49.37 -7.82 47.96 -7.82 46.56 C-7.82 43.6 -7.82 40.64 -7.82 37.69 C-7.81 33.89 -7.82 30.09 -7.82 26.3 C-7.83 23.39 -7.82 20.48 -7.82 17.57 C-7.82 16.17 -7.82 14.77 -7.82 13.37 C-7.83 11.41 -7.82 9.46 -7.82 7.51 C-7.82 6.39 -7.82 5.28 -7.81 4.13 C-7.57 -0.75 -4.28 0.24 0 0 Z " fill="#727374" transform="translate(726.6875,647.375)"/>
<path d="M0 0 C5.05 3.99 7.18 8.94 9 15 C9 15.99 9 16.98 9 18 C-1.2 19.07 -1.2 19.07 -5.51 16.51 C-7.47 14.76 -9.26 12.97 -11 11 C-13.56 8.44 -14.69 8.67 -18.25 8.62 C-23.36 8.76 -26.26 9.26 -30 13 C-35.49 20.05 -35.49 26.87 -34.69 35.36 C-33.65 40.83 -31.21 44.41 -27 48 C-22.61 50.51 -17.92 50.69 -13 50 C-8.89 48.1 -6.91 46.32 -5.12 42.25 C-4.75 41.18 -4.38 40.11 -4 39 C-4.83 38.95 -5.66 38.9 -6.52 38.85 C-7.61 38.78 -8.69 38.7 -9.81 38.62 C-10.89 38.56 -11.97 38.49 -13.08 38.41 C-16 38 -16 38 -19 36 C-19.26 32.92 -19.39 30.79 -18 28 C-13.52 27.97 -9.04 27.95 -4.56 27.94 C-3.28 27.93 -2 27.92 -0.69 27.91 C0.53 27.91 1.74 27.91 3 27.9 C4.12 27.9 5.25 27.89 6.41 27.89 C9 28 9 28 10 29 C10.42 36.22 10.6 43.18 8 50 C7.34 50 6.68 50 6 50 C5.76 50.75 5.51 51.5 5.26 52.27 C2.93 57.33 -1.98 60.67 -7.02 62.89 C-16.02 65.46 -26.5 64.8 -34.83 60.55 C-43.17 55.58 -47.97 50.53 -50.49 41.07 C-52.12 31.25 -52.64 20.59 -47 12 C-46.56 11.31 -46.13 10.61 -45.68 9.9 C-34.12 -6.97 -17.26 -9.58 0 0 Z " fill="#717273" transform="translate(851,651)"/>
<path d="M0 0 C2.54 2.09 4.3 4.2 6 7 C6.93 8.49 6.93 8.49 7.88 10 C9.19 13.5 9.22 16.29 9 20 C-2.42 21.22 -2.42 21.22 -6.13 18.36 C-7.65 16.3 -8.87 14.3 -10 12 C-10.38 11.25 -10.76 10.5 -11.14 9.73 C-11.43 9.16 -11.71 8.59 -12 8 C-21.89 8.06 -21.89 8.06 -30 13 C-34.81 20.12 -35.46 26.31 -34.69 34.74 C-33.25 41.54 -30.43 45.04 -25 49 C-20 50.67 -14.94 50.63 -9.94 49 C-8.98 48.5 -8.98 48.5 -8 48 C-8 47.01 -8 46.02 -8 45 C-7.34 45 -6.68 45 -6 45 C-5.67 43.35 -5.34 41.7 -5 40 C-0.38 40 4.24 40 9 40 C9 47 9 47 8 50 C7.34 50 6.68 50 6 50 C6 50.99 6 51.98 6 53 C4.04 54.71 2.04 56.38 0 58 C-0.33 58.66 -0.66 59.32 -1 60 C-9.65 65.03 -20.18 65.24 -29.77 62.82 C-37.79 59.88 -44.24 54.13 -48.25 46.67 C-52.76 36.18 -52.52 25.01 -48.5 14.5 C-47.69 12.65 -46.87 10.82 -46 9 C-45.34 9 -44.68 9 -44 9 C-43.75 8.44 -43.5 7.89 -43.25 7.31 C-39.95 1.21 -36.59 -1.08 -30.25 -3.31 C-29.57 -3.58 -28.89 -3.84 -28.2 -4.11 C-17.82 -7.91 -9.41 -5.19 0 0 Z " fill="#727374" transform="translate(479,651)"/>
<path d="M0 0 C3.16 2.11 3.42 2.41 4.46 5.77 C4.83 6.89 4.83 6.89 5.2 8.02 C5.69 9.58 6.18 11.14 6.66 12.7 C8.1 17.07 9.3 20.01 13 23 C16.08 16.47 18.81 9.99 21.01 3.12 C21.34 2.42 21.66 1.72 22 1 C25.52 -0.17 28.31 -0.2 32 0 C34.55 2.55 34.24 4.21 34.25 7.69 C34.25 8.46 34.24 9.24 34.23 10.04 C34.23 10.83 34.23 11.62 34.23 12.44 C34.23 14.12 34.22 15.8 34.21 17.48 C34.19 20.06 34.19 22.63 34.19 25.21 C34.18 26.84 34.17 28.47 34.17 30.1 C34.17 30.87 34.17 31.65 34.16 32.45 C34.12 37.88 34.12 37.88 33 39 C30.33 39.14 27.68 39.04 25 39 C25 38.34 25 37.68 25 37 C24.34 37 23.68 37 23 37 C23 34.03 23 31.06 23 28 C20.42 30.58 19.31 32.03 17.81 35.19 C17.47 35.9 17.12 36.62 16.77 37.36 C16.39 38.17 16.39 38.17 16 39 C9.49 39.37 9.49 39.37 7.37 37.78 C5.77 35.7 5.16 33.89 4.44 31.38 C3.8 29.02 3.8 29.02 3 27 C2.34 26.67 1.68 26.34 1 26 C0.67 30.29 0.34 34.58 0 39 C-1.26 39.04 -2.52 39.08 -3.81 39.12 C-4.52 39.15 -5.23 39.17 -5.96 39.2 C-8 39 -8 39 -11 37 C-11.27 34.3 -11.35 31.84 -11.29 29.15 C-11.29 28.37 -11.28 27.6 -11.28 26.8 C-11.26 24.33 -11.23 21.85 -11.19 19.38 C-11.17 17.7 -11.16 16.02 -11.15 14.34 C-11.11 10.23 -11.06 6.11 -11 2 C-7.18 -0.12 -4.39 -0.32 0 0 Z " fill="#6F7172" transform="translate(817,746)"/>
<path d="M0 0 C1.06 -0 1.06 -0 2.14 -0 C8.15 0.12 13.06 1.51 18.38 4.38 C18.38 5.03 18.38 5.7 18.38 6.38 C19.04 6.38 19.69 6.38 20.38 6.38 C25.31 12.86 25.18 19.44 24.38 27.38 C23.21 31.61 21.68 33.3 18 35.62 C17.23 36.13 16.46 36.63 15.66 37.14 C10.72 39.81 5.8 39.56 0.31 39.56 C-0.5 39.57 -1.32 39.59 -2.16 39.6 C-2.94 39.6 -3.73 39.6 -4.54 39.61 C-5.25 39.61 -5.96 39.61 -6.7 39.62 C-8.62 39.38 -8.62 39.38 -11.62 37.38 C-11.89 34.68 -11.97 32.22 -11.92 29.52 C-11.91 28.75 -11.91 27.98 -11.91 27.18 C-11.89 24.7 -11.85 22.23 -11.81 19.75 C-11.8 18.07 -11.78 16.4 -11.77 14.72 C-11.74 10.6 -11.69 6.49 -11.62 2.38 C-7.75 0.24 -4.36 -0.01 0 0 Z " fill="#707172" transform="translate(480.625,745.625)"/>
<path d="M0 0 C4.33 2.55 6.45 5.5 8.16 10.18 C9.12 14.56 9.33 18.59 9.31 23.06 C9.33 23.84 9.34 24.62 9.36 25.42 C9.37 30.35 8.72 33.72 6 38 C1.07 42.45 -1.95 43.35 -8.46 43.29 C-12.15 42.87 -14.22 41.39 -17 39 C-17.72 38.44 -18.44 37.89 -19.19 37.31 C-23.97 31.21 -24.34 24.22 -24.4 16.7 C-23.94 13.61 -22.97 12.36 -21 10 C-20.75 9.01 -20.5 8.02 -20.25 7 C-18.87 3.68 -17.49 2.3 -14.26 0.71 C-9.48 -0.79 -4.9 -0.98 0 0 Z " fill="#DCDFE0" transform="translate(550,659)"/>
<path d="M0 0 C3.23 -0.54 4.93 -0.79 8 0 C12.62 3.51 15.57 9.23 18.61 14.08 C20.02 16.27 20.02 16.27 23 18 C23 12.72 23 7.44 23 2 C26.74 0.13 28.04 -0.42 32 0 C34 2 34 2 34.24 5.01 C34.24 6.27 34.23 7.53 34.23 8.84 C34.23 9.51 34.23 10.19 34.23 10.88 C34.23 12.31 34.22 13.75 34.21 15.18 C34.19 17.36 34.19 19.54 34.19 21.73 C34.15 33.07 34.15 33.07 33 37 C33 37.66 33 38.32 33 39 C25.67 39.37 25.67 39.37 22.5 37.62 C21 36 21 36 21 34 C20.34 34 19.68 34 19 34 C19 33.01 19 32.02 19 31 C18.34 31 17.68 31 17 31 C17 30.01 17 29.02 17 28 C16.34 28 15.68 28 15 28 C15 27.01 15 26.02 15 25 C14.34 25 13.68 25 13 25 C12.71 24.36 12.42 23.72 12.12 23.06 C11.17 20.85 11.17 20.85 9 20 C9.01 21.29 9.02 22.58 9.04 23.9 C9.04 25.58 9.05 27.26 9.06 28.94 C9.07 29.79 9.08 30.64 9.09 31.51 C9.09 32.32 9.09 33.13 9.1 33.96 C9.1 34.71 9.11 35.46 9.11 36.23 C9 38 9 38 8 39 C5.33 39.14 2.68 39.04 0 39 C0 38.34 0 37.68 0 37 C-0.66 37 -1.32 37 -2 37 C-2.05 32.21 -2.09 27.43 -2.11 22.64 C-2.12 21.01 -2.13 19.38 -2.15 17.75 C-2.18 15.41 -2.19 13.07 -2.2 10.73 C-2.21 10 -2.22 9.27 -2.23 8.52 C-2.23 4.79 -2.13 3.19 0 0 Z " fill="#707273" transform="translate(671,746)"/>
<path d="M0 0 C2.31 -0.03 4.62 -0.05 6.94 -0.06 C8.23 -0.07 9.51 -0.09 10.84 -0.1 C14 0 14 0 15 1 C15.09 2.99 15.12 4.99 15.11 6.99 C15.11 8.27 15.11 9.55 15.11 10.87 C15.11 12.28 15.1 13.69 15.1 15.1 C15.1 16.53 15.09 17.96 15.09 19.4 C15.09 23.18 15.08 26.96 15.07 30.74 C15.06 34.59 15.05 38.44 15.05 42.3 C15.04 49.87 15.02 57.43 15 65 C12.52 65.03 10.04 65.05 7.56 65.06 C6.86 65.07 6.15 65.08 5.42 65.09 C3.61 65.1 1.81 65.05 0 65 C-1.78 63.22 -1.13 60.63 -1.13 58.23 C-1.13 56.37 -1.13 56.37 -1.14 54.49 C-1.14 53.13 -1.14 51.77 -1.13 50.41 C-1.13 49.03 -1.13 47.64 -1.14 46.26 C-1.14 43.35 -1.14 40.45 -1.13 37.55 C-1.12 33.82 -1.13 30.09 -1.13 26.36 C-1.14 23.5 -1.14 20.65 -1.13 17.79 C-1.13 16.41 -1.13 15.04 -1.14 13.66 C-1.14 11.74 -1.13 9.82 -1.13 7.9 C-1.13 6.81 -1.13 5.71 -1.13 4.59 C-1 2 -1 2 0 0 Z " fill="#757778" transform="translate(680,648)"/>
<path d="M0 0 C1.7 -0.04 1.7 -0.04 3.43 -0.08 C8.81 0.46 12.2 3.24 15.69 7.25 C15.69 7.91 15.69 8.57 15.69 9.25 C16.35 9.25 17.01 9.25 17.69 9.25 C20.33 17.84 21.37 26.42 17.56 34.81 C14.86 39.6 12.07 41.22 6.86 42.8 C4.18 43.35 1.67 43.35 -1.06 43.31 C-2.05 43.3 -3.03 43.29 -4.05 43.29 C-4.79 43.27 -5.54 43.26 -6.31 43.25 C-8 39.87 -7.56 36.03 -7.63 32.3 C-7.65 31.42 -7.67 30.53 -7.69 29.62 C-7.76 26.79 -7.82 23.96 -7.88 21.12 C-7.92 19.21 -7.96 17.29 -8.01 15.37 C-8.11 10.66 -8.21 5.96 -8.31 1.25 C-5.51 -0.15 -3.12 0.04 0 0 Z " fill="#DDE0E1" transform="translate(621.3125,658.75)"/>
<path d="M0 0 C1.86 0.06 1.86 0.06 3.75 0.12 C7.3 6.71 9.84 13.53 12.32 20.58 C13.01 22.52 13.7 24.45 14.39 26.39 C17.75 35.85 17.75 35.85 17.75 38.12 C18.74 38.62 18.74 38.62 19.75 39.12 C10.74 39.91 10.74 39.91 6.69 36.69 C6.05 35.84 5.41 35 4.75 34.12 C3.19 32.57 1.66 32.84 -0.5 32.75 C-4.41 32.77 -5.08 32.99 -8.31 35.56 C-10.35 37.72 -10.35 37.72 -10.25 39.12 C-13.55 39.12 -16.85 39.12 -20.25 39.12 C-19.92 38.47 -19.59 37.8 -19.25 37.12 C-19.75 35.64 -19.75 35.64 -20.25 34.12 C-19.8 32.25 -19.8 32.25 -18.99 30.13 C-18.7 29.35 -18.41 28.57 -18.1 27.76 C-17.78 26.93 -17.46 26.1 -17.12 25.25 C-16.8 24.4 -16.48 23.56 -16.15 22.68 C-15.49 20.97 -14.83 19.26 -14.17 17.55 C-13.35 15.39 -12.57 13.23 -11.81 11.05 C-11.4 9.9 -10.99 8.75 -10.56 7.56 C-10.21 6.55 -9.85 5.54 -9.49 4.5 C-7.33 0.36 -4.43 -0.15 0 0 Z " fill="#737576" transform="translate(757.25,745.875)"/>
<path d="M0 0 C3.56 2.45 4.54 6.53 5.92 10.44 C6.18 11.16 6.44 11.89 6.71 12.63 C7.26 14.16 7.81 15.69 8.35 17.22 C9.19 19.56 10.03 21.9 10.88 24.24 C11.41 25.72 11.95 27.21 12.48 28.69 C12.73 29.39 12.99 30.1 13.25 30.82 C15 35.77 15 35.77 15 38 C15.99 38.5 15.99 38.5 17 39 C7.99 39.79 7.99 39.79 3.94 36.56 C3.3 35.72 2.66 34.87 2 34 C1 32.78 1 32.78 -0.96 32.87 C-2.16 32.87 -2.16 32.87 -3.38 32.88 C-4.56 32.87 -4.56 32.87 -5.77 32.87 C-8.17 32.91 -8.17 32.91 -11 34 C-11.62 35.27 -11.62 35.27 -12.25 36.56 C-13.12 37.77 -13.12 37.77 -14 39 C-17.43 39.36 -19.88 39.56 -23 38 C-22.45 32.87 -21.25 28.68 -19.25 23.94 C-16.6 17.62 -14.36 11.26 -12.27 4.73 C-11 2 -11 2 -9.07 0.63 C-5.93 -0.33 -3.26 -0.3 0 0 Z " fill="#747576" transform="translate(623,746)"/>
<path d="M0 0 C6 7.37 6 7.37 6 10 C4.42 10.08 2.83 10.14 1.25 10.19 C0.37 10.22 -0.51 10.26 -1.42 10.29 C-4.48 9.95 -5.64 8.9 -8 7 C-12.25 6.46 -14.26 6.52 -17.88 8.88 C-20.65 11.65 -20.97 12.4 -21.19 16.38 C-21 20.55 -21 20.55 -19 24 C-15.9 26.57 -14.44 27.02 -10.38 26.88 C-7.07 26.33 -7.07 26.33 -5.56 24.5 C-2.91 21.95 0.43 22.29 4 22 C4 22.66 4 23.32 4 24 C4.99 24.33 5.98 24.66 7 25 C6.34 25 5.68 25 5 25 C4.98 25.72 4.96 26.44 4.94 27.19 C3.57 31.3 0.68 32.91 -3 35 C-8.95 36.98 -15.65 37.02 -21.38 34.31 C-27.37 30.81 -30.92 26.7 -33 20 C-33 12.78 -29.57 5.63 -24.56 0.5 C-16.76 -4.07 -7.84 -4.88 0 0 Z " fill="#6F7071" transform="translate(959,749)"/>
<path d="M0 0 C2.94 2.44 2.94 2.44 3.88 6.19 C3.9 7.26 3.92 8.33 3.94 9.44 C2.31 9.49 0.69 9.53 -0.94 9.56 C-2.29 9.6 -2.29 9.6 -3.68 9.63 C-6.06 9.44 -6.06 9.44 -8.06 7.44 C-11.15 7.27 -11.15 7.27 -14.06 7.44 C-13.54 9.4 -13.54 9.4 -12.06 11.44 C-9.74 12.59 -7.55 13.55 -5.12 14.44 C2.82 17.38 2.82 17.38 4.94 21.44 C5.76 25.2 5.78 28.89 3.92 32.32 C1.78 34.99 0.2 36.35 -3.06 37.44 C-10.02 38.16 -15.83 38.15 -21.64 33.95 C-23.81 31.65 -24.06 29.52 -24.06 26.44 C-15.82 24.98 -15.82 24.98 -12.81 26.81 C-12.24 27.35 -11.66 27.88 -11.06 28.44 C-8.41 29.15 -8.41 29.15 -6.06 29.44 C-6.39 27.13 -6.72 24.82 -7.06 22.44 C-7.62 22.35 -8.18 22.26 -8.75 22.18 C-14.51 21.12 -19.75 19.59 -24.06 15.44 C-25.45 11.42 -25.32 9.3 -24.12 5.25 C-18.57 -2.33 -8.38 -3.97 0 0 Z " fill="#717273" transform="translate(393.0625,747.5625)"/>
<path d="M0 0 C9.01 -0.62 9.01 -0.62 12.5 1.56 C14.37 4.6 15.2 7.54 16 11 C17.32 11.33 18.64 11.66 20 12 C20.33 11.22 20.65 10.44 20.99 9.63 C21.43 8.62 21.86 7.61 22.31 6.56 C22.74 5.55 23.17 4.54 23.61 3.5 C25 1 25 1 28 0 C30.33 -0.04 32.67 -0.04 35 0 C36.15 3.55 36.09 4.8 34.56 8.31 C33.79 9.64 33.79 9.64 33 11 C32.34 11 31.68 11 31 11 C30.82 11.58 30.64 12.16 30.45 12.76 C28.96 17.38 27.43 21.77 25 26 C24.34 26.33 23.68 26.66 23 27 C23 30.96 23 34.92 23 39 C16.38 39.25 16.38 39.25 13 37 C12.67 34.91 12.67 34.91 12.75 32.5 C12.77 31.71 12.78 30.91 12.8 30.09 C13 28 13 28 14 26 C13.34 26 12.68 26 12 26 C10.32 22.73 8.66 19.46 7 16.19 C6.52 15.26 6.05 14.33 5.55 13.37 C5.1 12.48 4.65 11.59 4.19 10.67 C3.77 9.85 3.35 9.02 2.92 8.18 C2 6 2 6 2 3 C1.34 3 0.68 3 0 3 C0 2.01 0 1.02 0 0 Z " fill="#727374" transform="translate(534,746)"/>
<path d="M0 0 C3.5 -0.31 3.5 -0.31 7 0 C9.55 2.55 9.24 4.21 9.25 7.69 C9.25 8.46 9.24 9.24 9.23 10.04 C9.23 11.23 9.23 11.23 9.23 12.44 C9.23 14.12 9.22 15.8 9.21 17.48 C9.19 20.06 9.19 22.63 9.19 25.21 C9.18 26.84 9.17 28.47 9.17 30.1 C9.17 30.87 9.17 31.65 9.16 32.45 C9.12 37.88 9.12 37.88 8 39 C1.54 39.36 1.54 39.36 -2 37 C-2.29 34.41 -2.4 32.06 -2.36 29.47 C-2.36 28.73 -2.36 27.98 -2.36 27.22 C-2.36 25.64 -2.35 24.06 -2.34 22.49 C-2.31 20.08 -2.32 17.66 -2.32 15.25 C-2.32 13.72 -2.31 12.19 -2.3 10.66 C-2.3 9.94 -2.3 9.22 -2.3 8.47 C-2.25 4.77 -2.11 3.16 0 0 Z " fill="#7A7B7C" transform="translate(327,746)"/>
<path d="M0 0 C2 2 2 2 2.23 5.62 C2.23 7.18 2.22 8.73 2.2 10.29 C2.19 11.11 2.19 11.93 2.19 12.77 C2.18 15.39 2.15 18.01 2.12 20.62 C2.11 22.4 2.11 24.17 2.1 25.95 C2.08 30.3 2.04 34.65 2 39 C0.74 39.04 -0.52 39.08 -1.81 39.12 C-2.52 39.15 -3.23 39.17 -3.96 39.2 C-6 39 -6 39 -9 37 C-9.27 34.3 -9.35 31.84 -9.29 29.15 C-9.29 28.37 -9.28 27.6 -9.28 26.8 C-9.26 24.33 -9.23 21.85 -9.19 19.38 C-9.17 17.7 -9.16 16.02 -9.15 14.34 C-9.11 10.23 -9.06 6.11 -9 2 C-5.79 0.28 -3.68 -0.39 0 0 Z " fill="#7A7B7C" transform="translate(893,746)"/>
<path d="M0 0 C9.09 -0.62 9.09 -0.62 12.56 1.75 C15.48 6.31 15.72 11.71 15 17 C12.8 20.03 11.55 20.82 8 22 C5.67 22.04 3.33 22.04 1 22 C-0.92 18.02 -1.12 15.3 -0.62 10.94 C-0.26 7.57 0 4.4 0 1 C0 0.67 0 0.34 0 0 Z " fill="#DDE0E1" transform="translate(480,755)"/>
<path d="M0 0 C0.99 0 1.98 0 3 0 C3 21.12 3 42.24 3 64 C2.01 63.67 1.02 63.34 0 63 C0 42.21 0 21.42 0 0 Z " fill="#A1A5A6" transform="translate(719,649)"/>
<path d="M0 0 C0.99 0 1.98 0 3 0 C3 21.12 3 42.24 3 64 C2.01 63.67 1.02 63.34 0 63 C0 42.21 0 21.42 0 0 Z " fill="#A1A5A6" transform="translate(598,649)"/>
<path d="M0 0 C0 21.12 0 42.24 0 64 C-0.99 63.67 -1.98 63.34 -3 63 C-3 42.54 -3 22.08 -3 1 C-1 0 -1 0 0 0 Z " fill="#A1A5A6" transform="translate(682,649)"/>
<path d="M0 0 C0.02 5.07 0.04 10.14 0.05 15.22 C0.06 16.94 0.07 18.67 0.08 20.39 C0.09 22.87 0.09 25.35 0.1 27.83 C0.1 28.6 0.11 29.38 0.11 30.17 C0.11 33.38 0.02 35.93 -1 39 C-4.8 37.51 -6.61 35.24 -9 32 C-8.67 31.34 -8.34 30.68 -8 30 C-5.52 31.98 -5.52 31.98 -3 34 C-3 23.11 -3 12.22 -3 1 C-1 0 -1 0 0 0 Z " fill="#A1A5A6" transform="translate(763,649)"/>
<path d="M0 0 C0.99 0 1.98 0 3 0 C3 11.88 3 23.76 3 36 C2.01 35.67 1.02 35.34 0 35 C0 23.45 0 11.9 0 0 Z " fill="#A1A5A6" transform="translate(806,748)"/>
<path d="M0 0 C0.99 0 1.98 0 3 0 C3 11.88 3 23.76 3 36 C2.01 35.67 1.02 35.34 0 35 C0 23.45 0 11.9 0 0 Z " fill="#A1A5A6" transform="translate(884,748)"/>
<path d="M0 0 C0.99 0 1.98 0 3 0 C3 11.88 3 23.76 3 36 C2.01 35.67 1.02 35.34 0 35 C0 23.45 0 11.9 0 0 Z " fill="#A1A5A6" transform="translate(469,748)"/>
<path d="M0 0 C0 11.88 0 23.76 0 36 C-0.99 35.67 -1.98 35.34 -3 35 C-3 23.78 -3 12.56 -3 1 C-1 0 -1 0 0 0 Z " fill="#A1A5A6" transform="translate(672,748)"/>
<path d="M0 0 C0 11.88 0 23.76 0 36 C-0.99 35.67 -1.98 35.34 -3 35 C-3 23.78 -3 12.56 -3 1 C-1 0 -1 0 0 0 Z " fill="#A1A5A6" transform="translate(328,748)"/>
<path d="M0 0 C0.99 0 1.98 0 3 0 C3.03 2.94 3.05 5.87 3.06 8.81 C3.07 9.65 3.08 10.48 3.09 11.34 C3.09 12.14 3.09 12.94 3.1 13.77 C3.1 14.51 3.11 15.25 3.11 16.01 C3 18 3 18 2 21 C-1.37 19.61 -2.99 18.02 -5 15 C-4.67 14.34 -4.34 13.68 -4 13 C-2.68 13.99 -1.36 14.98 0 16 C0 10.72 0 5.44 0 0 Z " fill="#A1A5A6" transform="translate(694,748)"/>
<path d="M0 0 C4.67 4.11 7.17 8.57 9.88 14.12 C10.29 14.94 10.71 15.75 11.13 16.58 C11.52 17.36 11.91 18.14 12.3 18.95 C12.66 19.65 13.01 20.36 13.37 21.09 C14 23 14 23 13 26 C9.95 22.31 7.93 18.2 5.81 13.94 C5.44 13.22 5.08 12.5 4.7 11.76 C4.35 11.06 4 10.37 3.64 9.65 C3.33 9.02 3.01 8.39 2.69 7.75 C2 6 2 6 2 3 C1.34 3 0.68 3 0 3 C0 2.01 0 1.02 0 0 Z " fill="#979B9C" transform="translate(534,746)"/>
<path d="M0 0 C0.66 0.33 1.32 0.66 2 1 C3.14 4.93 3.1 8.75 3.06 12.81 C3.05 13.97 3.04 15.14 3.04 16.33 C3.02 17.21 3.01 18.09 3 19 C2.01 18.67 1.02 18.34 0 18 C0.03 17.39 0.07 16.77 0.11 16.14 C0.13 15.33 0.16 14.52 0.19 13.69 C0.22 12.89 0.26 12.09 0.29 11.26 C-0.06 8.52 -0.89 7.71 -3 6 C-2.01 4.02 -1.02 2.04 0 0 Z " fill="#9FA3A4" transform="translate(840,765)"/>
<path d="M0 0 C0.66 0 1.32 0 2 0 C3.43 2.35 4.09 3.48 3.62 6.25 C3.42 6.83 3.21 7.4 3 8 C2.67 8 2.34 8 2 8 C1.67 11.63 1.34 15.26 1 19 C0.34 19 -0.32 19 -1 19 C-1.03 16.4 -1.05 13.79 -1.06 11.19 C-1.07 10.45 -1.08 9.71 -1.09 8.95 C-1.1 5.7 -1.04 3.11 0 0 Z " fill="#A2A6A7" transform="translate(816,764)"/>
<path d="M0 0 C0.99 0.99 1.98 1.98 3 3 C2.67 3.66 2.34 4.32 2 5 C1.34 4.67 0.68 4.34 0 4 C0 9.94 0 15.88 0 22 C-0.66 21.67 -1.32 21.34 -2 21 C-2.06 17.88 -2.09 14.75 -2.12 11.62 C-2.14 10.74 -2.16 9.85 -2.18 8.93 C-2.18 8.08 -2.19 7.23 -2.2 6.35 C-2.21 5.57 -2.22 4.78 -2.23 3.97 C-2 2 -2 2 0 0 Z " fill="#A2A6A7" transform="translate(680,762)"/>
<path d="M0 0 C2.52 1.97 2.99 2.97 3.69 6.19 C3.79 7.12 3.89 8.04 4 9 C2.02 9 0.04 9 -2 9 C-3.12 7.25 -3.12 7.25 -4 5 C-3.07 2.3 -2.58 1.29 0 0 Z " fill="#D8DBDC" transform="translate(618,762)"/>
<path d="M0 0 C0.66 0 1.32 0 2 0 C4.13 3.19 4.5 5.27 5 9 C2.69 9 0.38 9 -2 9 C-2.33 8.34 -2.66 7.68 -3 7 C-2.06 4.64 -1.07 2.3 0 0 Z " fill="#DDE0E1" transform="translate(755,762)"/>
<path d="M0 0 C0.99 0 1.98 0 3 0 C5.61 5.88 5.18 11.71 5 18 C4.34 18 3.68 18 3 18 C1.68 15.36 1.7 13.07 1.5 10.12 C1.26 6.63 0.98 3.37 0 0 Z " fill="#A1A5A6" transform="translate(557,669)"/>
<path d="M0 0 C0 4.95 0 9.9 0 15 C-0.99 15.5 -0.99 15.5 -2 16 C-3.44 13.12 -3.09 10.58 -3.06 7.38 C-3.05 6.19 -3.04 5 -3.04 3.77 C-3.02 2.86 -3.01 1.94 -3 1 C-1 0 -1 0 0 0 Z " fill="#9FA3A4" transform="translate(514,673)"/>
<path d="M0 0 C4.29 0 8.58 0 13 0 C13.33 0.99 13.66 1.98 14 3 C9.05 3 4.1 3 -1 3 C-0.67 2.01 -0.34 1.02 0 0 Z " fill="#A1A5A6" transform="translate(607,646)"/>
<path d="M0 0 C0.99 0.33 1.98 0.66 3 1 C2.67 1.99 2.34 2.98 2 4 C1.78 6.06 1.59 8.12 1.44 10.19 C1.35 11.27 1.27 12.36 1.18 13.48 C1.12 14.31 1.06 15.14 1 16 C0.34 16 -0.32 16 -1 16 C-1.03 13.71 -1.05 11.42 -1.06 9.12 C-1.07 7.85 -1.09 6.57 -1.1 5.26 C-1 2 -1 2 0 0 Z " fill="#A2A6A7" transform="translate(479,756)"/>
<path d="M0 0 C0.99 0 1.98 0 3 0 C3 3.63 3 7.26 3 11 C2.01 11 1.02 11 0 11 C0 7.37 0 3.74 0 0 Z " fill="#9DA1A2" transform="translate(640,676)"/>
<path d="M0 0 C0.99 0 1.98 0 3 0 C3.1 0.54 3.21 1.07 3.31 1.62 C3.98 4.19 3.98 4.19 5.56 7.12 C7 10 7 10 7 12 C4 11 4 11 2.83 9 C2.5 8.2 2.16 7.39 1.81 6.56 C1.47 5.76 1.12 4.96 0.77 4.13 C0 2 0 2 0 0 Z " fill="#9B9FA0" transform="translate(512,690)"/>
<path d="M0 0 C2.97 0 5.94 0 9 0 C9.33 0.99 9.66 1.98 10 3 C6.37 3 2.74 3 -1 3 C-0.67 2.01 -0.34 1.02 0 0 Z " fill="#A1A5A6" transform="translate(828,645)"/>
<path d="M0 0 C0.99 0 1.98 0 3 0 C3 3.3 3 6.6 3 10 C2.01 9.67 1.02 9.34 0 9 C0 6.03 0 3.06 0 0 Z " fill="#A1A5A6" transform="translate(547,774)"/>
<path d="M0 0 C1.88 0.5 1.88 0.5 4 2 C4.98 4.65 5.46 7.21 6 10 C5.01 9.67 4.02 9.34 3 9 C1.81 6.44 1.81 6.44 1 4 C0.34 4 -0.32 4 -1 4 C-0.67 2.68 -0.34 1.36 0 0 Z " fill="#A1A5A6" transform="translate(618,759)"/>
<path d="M0 0 C2.64 0 5.28 0 8 0 C8.33 0.99 8.66 1.98 9 3 C5.7 3 2.4 3 -1 3 C-0.67 2.01 -0.34 1.02 0 0 Z " fill="#A1A5A6" transform="translate(540,645)"/>
<path d="M0 0 C2.64 0 5.28 0 8 0 C8.33 0.99 8.66 1.98 9 3 C5.7 3 2.4 3 -1 3 C-0.67 2.01 -0.34 1.02 0 0 Z " fill="#A1A5A6" transform="translate(457,645)"/>
</svg>
